<?xml version="1.0" encoding="utf-8"?>
<!-- Generator: Adobe Illustrator 16.0.3, SVG Export Plug-In . SVG Version: 6.00 Build 0)  -->
<!DOCTYPE svg PUBLIC "-//W3C//DTD SVG 1.1//EN" "http://www.w3.org/Graphics/SVG/1.1/DTD/svg11.dtd">
<svg version="1.1" id="Capa_1" xmlns="http://www.w3.org/2000/svg" xmlns:xlink="http://www.w3.org/1999/xlink" x="0px" y="0px"
	 width="612px" height="792px" viewBox="0 0 612 792" enable-background="new 0 0 612 792" xml:space="preserve">
<title>arrow back-2</title>
<g id="Layer_2">
	<g id="Layer_1-2">
		<g id="arrow_back-2">
			<path fill="#755FFF" d="M538.382,421.966H60.619c-12.216,0-22.119-11.61-22.119-25.933c0-14.322,9.903-25.932,22.119-25.932
				h477.763c12.215,0,22.118,11.61,22.118,25.932C560.5,410.355,550.597,421.966,538.382,421.966z"/>
			<path fill="#755FFF" d="M366.361,641.145c-6.744,0.023-13.22-2.702-17.987-7.572c-9.84-10.18-9.84-26.541,0-36.72l197.15-200.819
				l-197.15-200.819c-9.934-10.14-9.934-26.58,0-36.72c9.935-10.14,26.041-10.14,35.976,0l214.731,219.179
				c9.841,10.179,9.841,26.541,0,36.72L384.35,633.572C379.582,638.442,373.106,641.168,366.361,641.145z"/>
		</g>
	</g>
</g>
</svg>
