<?xml version="1.0" encoding="utf-8"?>
<!-- Generator: Adobe Illustrator 16.0.3, SVG Export Plug-In . SVG Version: 6.00 Build 0)  -->
<!DOCTYPE svg PUBLIC "-//W3C//DTD SVG 1.1//EN" "http://www.w3.org/Graphics/SVG/1.1/DTD/svg11.dtd">
<svg version="1.1" id="Capa_1" xmlns="http://www.w3.org/2000/svg" xmlns:xlink="http://www.w3.org/1999/xlink" x="0px" y="0px"
	 width="612px" height="792px" viewBox="0 0 612 792" enable-background="new 0 0 612 792" xml:space="preserve">
<title>arrow back-1</title>
<g id="Layer_2">
	<g id="Layer_1-2">
		<g id="arrow_back-1">
			<path fill="#FFFFFF" stroke="#FFFFFF" stroke-width="18" stroke-miterlimit="10" d="M536.296,421.933H56.703
				c-12.262,0-22.203-17.109-22.203-38.217c0-21.105,9.941-38.216,22.203-38.216h479.593c12.263,0,22.204,17.109,22.204,38.216
				S548.559,421.933,536.296,421.933z"/>
			<path fill="#FFFFFF" d="M270.057,632.111c-7.164,0.022-14.041-2.702-19.105-7.572L22.879,405.36
				c-10.511-10.156-10.511-26.564,0-36.72l228.072-219.179c10.552-10.14,27.659-10.14,38.21,0c10.551,10.14,10.551,26.58,0,36.72
				L79.762,387l209.4,200.923c10.551,10.114,10.573,26.533,0.048,36.674c-5.074,4.89-11.968,7.631-19.153,7.618V632.111z"/>
		</g>
	</g>
</g>
</svg>
