<?xml version="1.0" encoding="utf-8"?>
<!-- Generator: Adobe Illustrator 16.0.3, SVG Export Plug-In . SVG Version: 6.00 Build 0)  -->
<!DOCTYPE svg PUBLIC "-//W3C//DTD SVG 1.1//EN" "http://www.w3.org/Graphics/SVG/1.1/DTD/svg11.dtd">
<svg version="1.1" id="Capa_1" xmlns="http://www.w3.org/2000/svg" xmlns:xlink="http://www.w3.org/1999/xlink" x="0px" y="0px"
	 width="612px" height="792px" viewBox="0 0 612 792" enable-background="new 0 0 612 792" xml:space="preserve">
<title>menu</title>
<g id="Layer_2">
	<g id="Layer_1-2">
		<g id="menu">
			<path fill="#755FFF" d="M586.067,421.933H25.932C11.61,421.933,0,410.322,0,396c0-14.322,11.61-25.932,25.932-25.932h560.135
				C600.39,370.068,612,381.678,612,396C612,410.322,600.39,421.933,586.067,421.933z"/>
			<path fill="#755FFF" d="M586.067,587.898H25.932C11.61,587.898,0,576.288,0,561.966c0-14.321,11.61-25.932,25.932-25.932h560.135
				c14.322,0,25.933,11.61,25.933,25.932C612,576.288,600.39,587.898,586.067,587.898z"/>
			<path fill="#755FFF" d="M586.067,255.966H25.932C11.61,255.966,0,244.356,0,230.034c0-14.322,11.61-25.932,25.932-25.932h560.135
				c14.322,0,25.933,11.61,25.933,25.932C612,244.356,600.39,255.966,586.067,255.966z"/>
		</g>
	</g>
</g>
</svg>
